<?xml version="1.0" encoding="utf-8"?>
<!-- Generator: Adobe Illustrator 26.0.0, SVG Export Plug-In . SVG Version: 6.00 Build 0)  -->
<svg version="1.1" id="Capa_1" xmlns="http://www.w3.org/2000/svg" xmlns:xlink="http://www.w3.org/1999/xlink" x="0px" y="0px"
	 viewBox="0 0 480 640" style="enable-background:new 0 0 480 640;" xml:space="preserve">
<style type="text/css">
	.st0{fill:url(#SVGID_1_);}
	.st1{fill:url(#SVGID_00000165195103450923868530000012409442561209895350_);}
	.st2{fill:#575756;}
</style>
<path d="M336.2,49.7"/>
<path d="M399.1-34.6"/>
<path d="M402.9,92"/>
<path d="M256.7,158.4"/>
<g>
	<g>
		<path d="M160.2,141.9c-3.2,51.5-6.4,103-9.4,154.7c-0.9,14.6-1.7,29.2-2.6,43.8c-0.4,6,13.3,6,13.7,0
			c3.2-51.5,6.4-103.2,9.4-154.7c0.9-14.6,1.7-29.2,2.6-43.8C174.2,135.9,160.6,135.9,160.2,141.9L160.2,141.9z"/>
	</g>
</g>
<g>
	<g>
		<path d="M211.7,275.9c-32.2,1.3-64.6-3.4-96.8,0.9c-28.8,3.8-34.3,5-47.2,14.8c-11.1,8.4-16.6,25.5-13.9,41
			c3.9,22.2,25.2,33.4,37.5,39.9c31.7,16.6,63.3,11.9,78.6,9.4c27.3-4.5,53.4-16.3,75.1-33.3c22.1-17.4,38.9-40.8,45.3-68.5
			c6.2-27,2.6-55.4-8.8-80.3c-12.4-27.1-33.9-49.4-60.5-62.7c-14.8-7.5-30.7-12-47.2-14c-8.1-0.9-16.3-1.1-24.3-0.7
			c-8.2,0.4-16.7,1.3-24.7,3.4c-28.5,7.7-52.2,18.3-71.5,41.2c-3.7,5.5-9.4,11.6-11.4,23.3c-0.8,7.7-0.2,7.7,2.6,2.3
			c13.3-24.3,36.3-41.2,62-51.1c6.7-2.6,13.7-4.9,20.8-6.7c7.3-2.1,15.2-2.6,22.7-3c15.5-0.7,31.1,0.9,45.9,5.4
			c27.7,8.2,46.3,27,62.2,51.1c14,21.3,21.9,46.5,20.6,72c-1.3,25.8-10.2,47.7-28.2,66.3c-18,18.5-37.3,33.8-61.9,41.5
			c-12.3,3.9-41,13.1-74.1,3.2c-8.4-2.5-47.7-14.3-50.3-40.8c-1.1-11.4,3.4-24.6,12.3-32.3c5-4.3,12.5-8,20.2-9.3
			c30.1-5.1,62.8-3.6,93.7-3.1c7.3,0.2,14.4,0.2,21.7-0.2C217.7,285.1,217.7,275.7,211.7,275.9z"/>
	</g>
</g>
<g>
	
		<linearGradient id="SVGID_1_" gradientUnits="userSpaceOnUse" x1="206.0593" y1="853.6871" x2="433.9314" y2="853.6871" gradientTransform="matrix(1 0 0 1 0 -570)">
		<stop  offset="0" style="stop-color:#FFFFFF"/>
		<stop  offset="1" style="stop-color:#000000"/>
	</linearGradient>
	<path class="st0" d="M433.9,286.6c-75.3-3.7-152.2-3.2-227.9-5.8"/>
	<g>
		
			<linearGradient id="SVGID_00000152245859879943980140000016136774297381590206_" gradientUnits="userSpaceOnUse" x1="205.903" y1="853.6872" x2="433.8859" y2="853.6872" gradientTransform="matrix(1 0 0 1 0 -570)">
			<stop  offset="1.246007e-07" style="stop-color:#000000"/>
			<stop  offset="0.1433" style="stop-color:#202020"/>
			<stop  offset="0.3849" style="stop-color:#484747"/>
			<stop  offset="0.6927" style="stop-color:#717171"/>
			<stop  offset="1" style="stop-color:#9D9D9C"/>
		</linearGradient>
		<path style="fill:url(#SVGID_00000152245859879943980140000016136774297381590206_);" d="M433.9,281.9
			c-59.4-3-118.7-3.2-178.1-4.5c-16.7-0.4-33.1-0.7-49.8-1.3c-6-0.2-6,9.2,0,9.4c59.4,2.1,118.9,2.1,178.3,3.9
			c16.5,0.6,33.1,1.1,49.6,1.9C439.9,291.5,439.9,282.1,433.9,281.9L433.9,281.9z"/>
	</g>
</g>
<g>
	<g>
		<path class="st2" d="M318.8,286.6c0.6,26.6,1.5,53.2,2.2,79.8c0.4,13.3,0.7,26.4,0.9,39.7s0.7,26.8,0.4,40.1c0,0.6,0,1.1-0.2,1.7
			c0.2-1.3-0.2,0.7-0.2,1.1c-0.2,0.8-0.4,1.7-0.7,2.5c0,0-0.4,1.3-0.8,2.5c-3.2,9.2-9.5,16.6-9.5,16.6c-5.8,6.9-12,10.5-14.5,11.9
			c-7.5,4.1-13.7,5.1-22.8,6.4c-8.1,1.1-17,1.3-24.5,0.4c-2.1-0.2-4.1-0.7-6.4-1.1c-0.9-0.2-1.9-0.6-2.8-0.7
			c-0.4-0.2-0.7-0.2-1.1-0.4c-0.9-0.4-0.2,0-0.7-0.4c-5.2-2.4-10.1-5.4-14.2-9.2c-7.9-6.9-13.9-15.9-17-26c-1.7-5.8-10.9-3.4-9,2.4
			c3,9.9,8.6,19.1,15.9,26.6c6.9,7.3,16.1,13.7,25.8,16.5c8.4,2.4,17.6,2.8,26.4,2.2c9.2-0.6,18.7-0.5,27.3-3.3
			c8.8-3,18.3-7.3,24.7-14c6.7-7.3,11.1-17.6,14.3-27.1c1.1-3.7,1.6-7.4,1.6-11.1c0-7.1,0.1-13.4-0.1-20.6
			c-0.2-13.7,0.3-28.6,0-42.3c-0.7-31.5-2.4-62.7-3.1-94.1C330.2,280.2,318.6,280.4,318.8,286.6z"/>
	</g>
</g>
</svg>
